<?xml version="1.0" encoding="UTF-8"?>
<svg id="Main_Logo" data-name="Main Logo" xmlns="http://www.w3.org/2000/svg" xmlns:xlink="http://www.w3.org/1999/xlink" viewBox="0 0 3000 1200">
  <defs>
    <style>
      .cls-1 {
        fill: #e65100;
      }

      .cls-2 {
        fill: #37474f;
      }
    </style>
    <symbol id="Show_Me_Fire_" data-name="Show Me Fire " viewBox="0 0 2771.67 1086.89">
      <g>
        <path id="ShowMeFireLogoIcon" class="cls-1" d="M651.5,583.08c-11.82-15.42-26.22-28.79-39.59-42.16-34.45-30.85-73.52-52.95-106.42-85.34-76.6-75.06-93.57-198.96-44.73-294.07-48.84,11.82-91.51,38.56-128.01,67.86-133.16,106.94-185.6,295.62-122.87,457.56,2.06,5.14,4.11,10.28,4.11,16.97,0,11.31-7.71,21.59-17.99,25.71-11.82,5.14-24.16,2.06-33.93-6.17-2.92-2.44-5.36-5.41-7.2-8.74-58.1-73.52-67.35-178.91-28.28-263.23C40.73,521.39-6.05,639.63.63,751.2c3.08,25.71,6.17,51.41,14.91,77.12,7.2,30.85,21.08,61.69,36.5,88.94,55.52,88.94,151.66,152.69,255,165.55,110.02,13.88,227.75-6.17,312.07-82.26,94.08-85.34,126.99-222.1,78.66-339.32l-6.68-13.37c-10.8-23.65-39.59-64.78-39.59-64.78M489.04,906.97c-14.4,12.34-38.04,25.71-56.55,30.85-57.58,20.56-115.16-8.23-149.09-42.16,61.18-14.4,97.68-59.64,108.48-105.39,8.74-41.13-7.71-75.06-14.4-114.65-6.17-38.04-5.14-70.43,8.74-105.91,9.77,19.54,20.05,39.07,32.39,54.5,39.59,51.41,101.8,74.03,115.16,143.95,2.06,7.2,3.08,14.4,3.08,22.11,1.54,42.16-16.97,88.43-47.81,116.7M478.69,898.09c-15.56,13.05-35.39,23.07-53.8,28.48-27.15,8.84-55.36,5.62-79.67-4.72-4.34-1.64-5.33-4.46-5.17-8.61.06-39.94-2.85-20.45,23.75-47.54,6.01-5.79,11.05-12.74,16.41-18.99,1.93-1.82.98,5.62,1.2,8.65,0,11.02-.05,28.67,0,39.35.1,1.72.07,2.17,1.49,2.25,9.07.04,81.64,0,94.8.02.85.01,2.01-.01,1.06,1.05l-.05.06ZM1324.52,815.25c.88,20.45.12,40.56-4.06,60.62-3.41,17.4-9.77,25.73-21.15,36.37-12.13,11.77-19.25,4.92-27.38,11.01-3,3.22-5.11,7.57-8.11,10.94-5.31,6.19-10.75,10.41-13.82,17.73-7.83,16.42,2.27,16.63-9.35,36.42-2.54,6.51-1.66,10.79-5.12,17.32-3.78,7.7-8.32,14.81-13.42,21.77-3.22,4.43-7.27,9.88-10.33,13.72-2.45,2.48-4,6.05-6.97,6.57-15.06.45-94.2-.21-125.93.05-3.33,1.49-8.34-13.56-8.96-16.97-2.58-24.55,20.03-43.45,35.44-59.42,4.3-5.1,15.6-12.25,15.97-18.66-.15-3.4-2.8-7.33-4.41-10.43-.83-1.34-1.95-3.77-3.21-4.27-17.5-1.43-397.92,2.51-424.95-1.26,5.54-10.11,11.28-20.4,15.96-30.94.94-2.09,2.35-5.26,3.29-7.13.67-1.13.72-1.48,1.51-1.64,110.87-.24,322.98.17,410.8,0,20.53.08,30.71,20.69,38.38,37.19,8.18,17.7,6.51,33.31-5.38,47.29-5.04,5.7-10.95,11.13-16.45,16.4-3.3,3.77-11.63,9.26-3.27,8.9,12.61-.72,39.04,1.07,51.33-.53,3.5-1.34,7.53-7.05,8.73-11.18,1.17-5.67-4.18-10.15-5.15-15.54-1.54-6.07-.07-12.95,3.82-17.97,1.9-2.43,4.21-4.63,5.93-7.16,2.75-3.74,3.59-8.33,5.67-12.55,2.14-3.91,4.99-7.46,5.58-12.09.57-12.87-4.18-26.17,6.07-36.78,3.4-3.67,8.37-6.38,13.47-7.06,3.31-.5,6.85-.19,9.84-1.83,4.54-2.71,7.41-8.3,12.01-11.15,8.77-6.3,15.62-3.27,25.03-1.37,3.07.17,4.24-2.61,4.7-5.25,1.64-8.62,3.13-20.68,3.05-30.26-1-14.66-8.39-12.97-20.15-15.35-13.04-4.1-22.01-16.26-26.19-28.65-4.7-12.6-16.29-22.02-19.27-35.82-6.65-27.78,13.17-31.39,3.07-48.35-1.78-3.71-3.19-7.92-4.06-12.05-2.64-9.46.42-20.65-7.68-27.34-4.78-4.06-10.64-8.48-14.03-13.89-3.69-6.17-7.56-12.46-13.34-17.06-8-6.93-14.72-12.36-26.88-18.25-7.06-3.46-15.5-7.13-21.98-11.05-12.24-7.39-21.09-16.74-31.93-26.47-13.11-12.97-26.61-28.83-31.01-47.05-2.38-17.18,2.07-24.2,10.13-45.62,3.86-9.43,8.29-18.69,12.02-27.43,3.69-9.11,7.53-18.09,8.91-27.82.79-5.17,2.86-10.53,3.55-15.7,1.24-7.65-7.65-9.73-13.47-12.01-6.14-2.45-9.94-1.94-15.01,2.62-18.48,15.63-42.96,5.67-54.47-13.27-7.64-12.48-9.39-27.89-10.28-41.69-.44-7.25-.74-14.74-4.51-21.18-7.26-10.99-17.13-22.3-28.61-29.39-10.47-5.86-19.4-14.86-25.33-25.08-4.52-7.51-10.98-13.58-17.3-19.64-10.71-10.58-23.97-21.98-33.46-33.98-7.57-11.3-12.37-24.77-15.39-38-1.48-8.21-.95-15.95-3.6-23.44-5.8-17.48-10.79-36.66-8.99-55.19.72-7.96,2.59-15.99,4.97-23.5.83-3.12,2.17-5.68.84-8.5-.81-1.72-2.73-3.55-5.24-6.23-6.82-7.38-18.17-19.11-24.94-26.37-15.5-6.48-327.12,1.78-516.82.72-69.32,1.01-110.63-.32-135.28,1.26,2.55,6.79,5.01,17.98,7.96,25.53,2.23,5.04,6.1,7.72,10.39,11.63,9.26,8.68,19.03,19.16,24.47,31.07,4.44,9.31,3.47,18.46,13.18,24.52,8.97,6.88,18.15,15.73,28.24,21.15,5.7,1.78,11.36-2.03,17.21-2.21,7.87-.73,16.06,2.45,21.24,8.48,3.17,3.64,5,8.18,7.55,12.23,8.21,10.84,15.02,27.84.97,37.07-19.67,15.34-37.97,32.52-54.5,51.24-3.46,4.77-8.76,5.96-11.63-.88-3.68-7.59-4.09-16.54-1.14-24.48,4.11-11.26,15.43-22.16,22.47-32.71,4.58-5.53.68-5.16-3.9-5.49-11.98-.6-20.16-7.55-30.05-15.05-7.76-5.52-14.86-11.65-22.4-17.25-9.76-5.6-19.6-12.76-21.68-24.64-.95-4.05-.98-7.92-2.18-11.91-1.71-6.28-7.57-12.93-12.27-17.73-8.33-8.56-17.59-13.1-22.44-23.85-3.92-8.05-5.1-18.27-7.96-26.26-1.53-4.84-5.93-8.18-9.39-12.05-8.48-8.49-10.46-18.98-9.83-31.07-.02-5.92-.26-12.95.27-18.39,29.34-.87,75.83-.07,153.75-.97C505.19,2.14,852.06-.16,865.36,0c.32.16.98.87,3.09,3.1,11.67,12.48,37.47,39.54,45.66,48.3,3.71,3.7,6.74,7.79,8.72,12.93,4.67,11.3-.45,21.42-4.25,32.27-2.77,8.68-4.35,18.09-2.99,27.11,1.83,15.91,11.37,34.34,11.39,51.37.92,8.7,4.39,17.67,8.7,25.18,5.06,6.56,12.68,13.08,18.52,19.08,9.22,8.97,17.76,15.99,27.66,28.34,4.33,5.35,7.31,11.82,12.47,16.43,6.76,5.46,15.74,9.9,22.03,16.41,10.05,10.09,19.86,20.16,27.02,32.52,8.13,13.49,8.61,29.96,9.73,45.16,1.26,17.59,6.87,9.11,17.53,6.22,20.87-7.04,67.92,12.92,76.53,31.65,8.39,17.68-2.19,29.1-5.52,45.22-3.63,23.27-16.75,46.48-25.25,67.9-2.03,6.13-6.5,13.99-4.67,20.07,4.3,9.6,15.56,20.98,23.91,28.46,4.91,4.36,9.57,8.95,14.84,12.8,6.07,4.4,13.68,7.59,20.69,10.99,17.66,8.33,28.56,16.85,39.86,26.95,4.13,3.65,9.18,8.77,12.48,13.55,2.38,3.41,3.8,6.47,6.56,9.36,17.32,14.15,24.7,24.88,26.04,46.7,1.48,20.52,13.86,24.14,8.56,50.02-1.06,7.81-8.29,15-4.12,22.45,1.76,3.55,4.58,6.72,6.8,10.02,2.53,3.58,4.45,7.64,7.37,9.8,3.07,2.43,7.14,2.87,10.76,4.13,8.69,2.96,14.49,10.85,21.36,16.49,8.9,5.75,16.82,11.77,17.69,24.07l.02.18Z"/>
        <g>
          <path class="cls-2" d="M1461.95,212.65l-38.21-13.19c-7.53-2.62-13.21-6.36-16.88-11.1-3.66-4.73-5.52-10.29-5.52-16.55,0-5.45,1.35-10.35,4-14.58,2.65-4.23,6.41-7.55,11.18-9.87,4.78-2.32,10.37-3.5,16.61-3.5,10.48,0,19.95,3.18,28.14,9.45,8.19,6.28,14.31,15.11,18.17,26.25l.1.3,32.01-15.58-.08-.23c-3.72-11.44-9.41-21.54-16.93-30.01-7.52-8.48-16.61-15.21-27-20.01-10.41-4.8-21.99-7.23-34.42-7.23-13.56,0-25.75,2.85-36.25,8.47-10.5,5.63-18.84,13.56-24.79,23.57-5.95,10.01-8.96,21.73-8.96,34.81,0,15.13,4.19,28.35,12.47,39.28,8.26,10.93,20.65,19.27,36.8,24.79l39.88,14.11c7.17,2.63,12.62,6.11,16.2,10.35,3.57,4.22,5.37,9.74,5.37,16.39,0,5.64-1.34,10.54-4,14.57-2.66,4.03-6.46,7.25-11.32,9.57-4.86,2.32-10.69,3.5-17.31,3.5-11.78,0-22.52-3.75-31.9-11.14-9.4-7.4-16.69-17.73-21.67-30.71l-.11-.28-32.28,15.26.07.23c3.9,12.66,9.97,23.89,18.04,33.38,8.08,9.5,17.87,17.01,29.1,22.31,11.24,5.31,23.52,8,36.51,8,14.47,0,27.28-2.9,38.06-8.62,10.78-5.72,19.35-13.7,25.49-23.72,6.13-10.02,9.24-21.73,9.24-34.81,0-15.33-4.2-28.39-12.47-38.83-8.27-10.42-20.83-18.71-37.36-24.63Z"/>
          <polygon class="cls-2" points="1671.57 210.18 1583.72 210.18 1583.72 110.48 1544.96 110.48 1544.96 339.58 1583.72 339.58 1583.72 247.55 1671.57 247.55 1671.57 339.58 1710.34 339.58 1710.34 110.48 1671.57 110.48 1671.57 210.18"/>
          <path class="cls-2" d="M1930.02,140.63c-9.84-10.61-21.5-18.99-34.67-24.91-13.18-5.92-27.67-8.92-43.06-8.92s-29.89,3-43.06,8.92c-13.18,5.92-24.84,14.25-34.67,24.76-9.84,10.52-17.6,23.14-23.07,37.52-5.47,14.38-8.25,30.15-8.25,46.88s2.82,32.5,8.39,46.88c5.57,14.39,13.38,27.07,23.2,37.67,9.83,10.61,21.45,18.99,34.53,24.91,13.09,5.92,27.53,8.92,42.92,8.92s29.84-3,42.92-8.92c13.08-5.91,24.69-14.3,34.53-24.91,9.83-10.61,17.64-23.28,23.2-37.67,5.56-14.38,8.39-30.16,8.39-46.88s-2.77-32.44-8.25-46.73c-5.47-14.28-13.23-26.9-23.06-37.52ZM1852.28,304.66c-9.96,0-19.3-2-27.77-5.96-8.48-3.95-16-9.56-22.36-16.65-6.36-7.1-11.37-15.64-14.87-25.37-3.51-9.74-5.28-20.44-5.28-31.81s1.78-22.02,5.28-31.66c3.5-9.63,8.5-18.17,14.87-25.37,6.36-7.2,13.88-12.8,22.36-16.65,8.48-3.85,17.82-5.8,27.77-5.8s19.29,1.95,27.77,5.8c8.48,3.85,16,9.46,22.36,16.65,6.36,7.2,11.36,15.73,14.87,25.37,3.5,9.65,5.28,20.3,5.28,31.66s-1.78,22.06-5.28,31.81c-3.51,9.74-8.51,18.28-14.87,25.37-6.35,7.09-13.88,12.69-22.36,16.65-8.48,3.95-17.82,5.96-27.77,5.96Z"/>
          <polygon class="cls-2" points="2171.22 281.17 2131.44 110.69 2131.39 110.48 2091.35 110.48 2051.51 281.17 2013.19 110.69 2013.14 110.48 1971.85 110.48 2027.71 339.37 2027.76 339.58 2071.71 339.58 2111.37 176.44 2150.98 339.37 2151.03 339.58 2194.97 339.58 2250.8 110.82 2250.88 110.48 2209.59 110.48 2171.22 281.17"/>
          <polygon class="cls-2" points="2489.63 213.46 2420.79 110.6 2420.71 110.48 2383.75 110.48 2383.75 339.58 2422.51 339.58 2422.51 182.07 2486.51 278.23 2491.27 278.23 2554.98 184.86 2554.98 339.58 2593.75 339.58 2593.75 110.48 2557.06 110.48 2489.63 213.46"/>
          <polygon class="cls-2" points="2771.67 147.85 2771.67 110.48 2632.79 110.48 2632.79 339.58 2771.67 339.58 2771.67 302.21 2671.55 302.21 2671.55 243.56 2766.09 243.56 2766.09 205.88 2671.55 205.88 2671.55 147.85 2771.67 147.85"/>
        </g>
        <g>
          <polygon points="1355.26 931.1 1462.78 931.1 1462.78 712.88 1674.34 712.88 1674.34 609.87 1462.78 609.87 1462.78 465.66 1709.02 465.66 1709.02 362.66 1355.26 362.66 1355.26 931.1"/>
          <rect x="1772.64" y="362.66" width="107.52" height="568.45"/>
          <polygon points="2771.67 465.66 2771.67 362.66 2424.15 362.66 2424.15 931.1 2771.67 931.1 2771.67 828.1 2531.67 828.1 2531.67 697.62 2757.8 697.62 2757.8 594.61 2531.67 594.61 2531.67 465.66 2771.67 465.66"/>
          <path d="M2333.57,643.06c16.18-27.21,24.28-60.15,24.28-98.81s-7.87-72.99-23.58-99.96c-15.73-26.96-37.35-47.31-64.86-61.04-27.52-13.73-59.08-20.6-94.68-20.6h-197.69v568.45h107.52v-206.01h76.3l104.74,206.01h120.7l-117.92-226.62c27.28-13.73,49.01-34.2,65.2-61.42ZM2240.96,584.69c-6.24,11.71-14.91,20.86-26.01,27.47-11.1,6.62-24.28,9.92-39.54,9.92h-90.87v-156.42h90.87c15.26,0,28.44,3.31,39.54,9.92,11.1,6.62,19.77,15.77,26.01,27.47,6.24,11.71,9.36,25.44,9.36,41.2s-3.12,28.74-9.36,40.44Z"/>
        </g>
      </g>
    </symbol>
  </defs>
  <use width="2771.67" height="1086.89" transform="translate(91.39 56.59)" xlink:href="#Show_Me_Fire_"/>
</svg>