<?xml version="1.0" encoding="UTF-8"?>
<svg id="Logo" xmlns="http://www.w3.org/2000/svg" viewBox="0 0 5000 2000">
  <defs>
    <style>
      .cls-1 {
        fill: #e65100;
      }

      .cls-2 {
        fill: #37474f;
      }
    </style>
  </defs>
  <path id="ShowMeFireLogoIcon" class="cls-1" d="M1139.06,1063.98c-19.07-24.87-42.28-46.43-63.84-67.98-55.55-49.74-118.56-85.39-171.62-137.62-123.53-121.04-150.89-320.85-72.13-474.22-78.76,19.07-147.57,62.18-206.44,109.44-214.73,172.45-299.29,476.71-198.15,737.87,3.32,8.29,6.63,16.58,6.63,27.36,0,18.24-12.44,34.82-29.02,41.45-19.07,8.29-38.97,3.32-54.72-9.95-4.71-3.94-8.64-8.72-11.61-14.09-93.68-118.56-108.61-288.51-45.6-424.48-138.45,112.75-213.9,303.44-203.12,483.34,4.97,41.45,9.95,82.91,24.04,124.36,11.61,49.74,33.99,99.49,58.86,143.43,89.54,143.43,244.57,246.23,411.22,266.96,177.42,22.38,367.27-9.95,503.24-132.65,151.72-137.62,204.78-358.16,126.85-547.18l-10.78-21.56c-17.41-38.14-63.84-104.46-63.84-104.46M877.07,1586.29c-23.21,19.9-61.35,41.45-91.2,49.74-92.86,33.16-185.71-13.26-240.43-67.98,98.66-23.21,157.52-96.17,174.93-169.96,14.09-66.33-12.44-121.04-23.21-184.88-9.95-61.35-8.29-113.58,14.09-170.79,15.75,31.5,32.33,63.01,52.23,87.88,63.84,82.91,164.15,119.39,185.71,232.14,3.32,11.61,4.97,23.21,4.97,35.65,2.49,67.98-27.36,142.6-77.1,188.2M861.87,1570.24c-21.96,18.55-56.95,37.6-81.9,44.53l-.77.21-.75.27c-49.37,17.63-98.53,10.12-140.83-9.23l.04-53.93c15.12-10.08,29.07-21.72,41.61-34.76,8.96-9.31,17.14-19.25,24.49-29.7l-.06,82.62h158.17ZM2224.79,1439.51v36.88c-.03.75-.56,18.69-3.2,38.79-4.44,33.77-12.05,54.23-24.7,66.35-6.59,6.32-10.39,10.49-12.42,12.87-6.91,8.13-16.97,13.24-27.61,14.02-5.18.38-10.28-.22-15.08-1.74-3.14,6.91-8.72,16.24-19.25,28.94-3.88,4.67-8.73,8.27-14.1,10.62-1.56,9.7-5.39,18.04-11.47,24.96-.24.27-.47.53-.71.79.36.86.71,1.69,1.03,2.49,4.73,11.58,3.39,24.69-3.59,35.07-2.05,3.05-4.5,5.74-7.25,8.01.27,1.98.4,3.96.4,5.92,0,11.02-3.99,23.54-23.82,51.82-9.37,13.37-18.62,25.03-19.01,25.52l-9.92,12.49h-209.82l-8.69-19.7c-3.36-7.62-5.65-20.51,2.53-38.6,6.82-15.09,20.1-32.39,40.61-52.9,11.06-11.06,19.71-19.23,26.67-25.8,5.48-5.17,11.11-10.49,13.72-13.43-1.02-3.99-5.21-13.41-13.48-26.59h-687.92c.99-1.65,1.97-3.31,2.95-4.98,11.51-19.72,21.68-40.12,30.48-61.08h665.54c15.08,0,29.16,7.44,37.67,19.89,30.96,45.35,30.96,65.85,30.96,72.59,0,28.99-13.01,41.27-34.56,61.63-6.31,5.96-14.09,13.3-23.75,22.92h94.84c6.23-8.44,11.95-16.76,15.72-22.83-1.12-1.28-2.47-2.72-4.07-4.31-10.13-10.06-13.15-25.1-7.71-38.3,3.62-8.79,10.48-15.5,18.87-19.02-.13-7.43,1.48-13.48,3.38-18.01,2.94-6.98,7.82-13.04,13.79-17.38-6.17-27.17-7.41-47.15,4.61-62.28,7.09-8.93,17.73-14.05,29.19-14.05,3.2,0,7.56.46,12.26,2.27.08-.23.17-.46.25-.68,9.73-25.98,30.8-28,37.03-28,8.12,0,15.94,2.48,25.44,8.48,3.73-10.23,7.46-36.22,8.14-58.17v-16.16c-5.02-3.21-9.03-7.14-12.04-10.6-8.45,2.23-23.11,3.09-38.61-9.71-17.1-14.13-22.54-31.54-25.79-41.94-.6-1.91-1.4-4.47-1.87-5.59-1-1.4-2.59-3.41-4.25-5.53-10.48-13.34-26.32-33.49-26.32-58.93,0-17.14,6.48-28.7,10.76-36.36,3.04-5.42,3.68-6.69,3.79-10.19.05-1.65.05-1.78-2.9-7.07-4.95-8.85-12.42-22.22-12.96-44.68-.24-10.17-1.22-17.29-2.89-21.16-.54-1.25-1.16-2.67-5.14-4.87-19.12-10.55-25.87-23.98-30.34-32.86-2.49-4.95-3.63-7.21-7.64-10.67-2.03-1.75-4-3.47-5.94-5.16-15.67-13.67-26.99-23.55-53.68-35.13-30.85-13.39-41.71-22.67-58.25-37.91-3.9-3.59-7.93-7.31-12.96-11.66-13.94-12.06-28.04-27.73-38.68-43.01-14.29-20.51-20.92-37.77-20.26-52.76.81-18.59,9.36-43.24,32.69-94.22,13.17-28.78,17.01-44.26,17.77-47.69.65-6.34,3.04-23.34,10.9-41.11-3.87-2.13-9.53-4.95-17.75-8.52-14.01-6.09-21.05-6.8-23.56-6.8-.01,0-.03,0-.04,0-.41.47-.88,1.04-1.28,1.5l-.81.96c-9.84,11.63-24,18.48-38.83,18.79-11.81.23-29.58-3.44-47.01-22.39-22.35-24.29-24.16-60.37-25.62-89.37-.08-1.55-.15-3.07-.23-4.58-.72-13.65-6.41-22.41-16.67-33.81-1.61-1.79-3.26-3.65-4.94-5.55-8.39-9.48-18.83-21.28-26.89-25.31-21.39-10.7-36.06-25.28-47.54-47.29-2.89-5.23-18.5-21.46-32.1-33.36l-.74-.64-37.68-37.12c-8.62-8.49-15.2-18.51-19.58-29.79l-8.69-22.4c-4.87-12.56-7.35-25.77-7.35-39.24v-4.86c0-2.05-.36-4.06-1.06-5.96-6.76-18.27-18.09-53.42-18.09-83.65,0-23.52,6.76-46.48,13.02-62.7l-54.92-58.09-1048.55,6.19c.19.41.36.81.53,1.19,1.25,2.91,4.11,9.59,13.21,45.71,10.82,8.08,25.96,21.15,41.5,40.24,16.05,19.72,21.53,39.3,22.8,54.61,1.03.55,2.02,1.09,2.98,1.64,10.28,5.88,19.12,14.11,23.34,18.34l34.28,25.71,16.39-5.46c11.04-3.68,23.17-2.49,33.29,3.26,10.11,5.75,17.33,15.56,19.81,26.92.21.94.4,1.73.56,2.36,11,8.62,17.31,21.98,16.94,35.95l-.29,10.96c-.02.83-.08,1.66-.15,2.49-7.03,5.28-14.08,10.77-21.17,16.46-32.83,26.36-62.98,55.89-90.18,88.25-17.13-18.15-18.81-46.25-3.64-66.34l36.57-48.45c-14.98,2.84-30.6-.69-42.97-9.96l-43.62-32.72-1.87-2.05c-2.21-2.33-6.89-6.56-10.05-8.37-1.62-.93-3.76-1.98-6.18-3.05-18.79-8.28-30.48-26.97-29.79-47.62.16-4.85-1.14-12.47-8.27-21.23-13.11-16.11-25.55-26.01-31.79-30.48-10.76-7.7-18.44-18.98-21.64-31.78-5.62-22.49-8.9-33.83-10.31-38.08-1.66-2.06-5.93-6.79-13.98-14.07-9.89-8.95-15.56-21.73-15.56-35.05v-44.92l1166.12-6.88,83.78,88.63c12.85,13.59,16.11,33.34,8.32,50.32-3.74,8.15-12.45,29.16-12.45,48.06,0,14.35,5.23,37.05,13.99,60.73,3.43,9.27,5.17,18.99,5.17,28.89v4.86c0,5.27.97,10.44,2.87,15.35l8.69,22.4c.97,2.51,2.44,4.74,4.36,6.63l36.3,35.76c9.34,8.23,36.68,33.19,46.41,51.85,5.08,9.74,9.58,14.3,18.52,18.76,19.51,9.75,34.65,26.87,46.82,40.62,1.56,1.76,3.08,3.48,4.57,5.14,15.55,17.28,31.7,39.65,33.53,74.52.08,1.56.16,3.14.24,4.74.57,11.39,1.16,23.17,3.05,33.15.79,4.21,1.67,7.28,2.48,9.51,5.96-5.09,14.26-10.31,25.66-13.04,18.4-4.4,40.1-1,66.34,10.41,30.67,13.33,51.2,25.9,58.81,47.34,7.33,20.64-1.78,38.21-5.67,45.71-4.76,9.19-6.61,20.41-6.94,24.15l-.08,1.43-.19,1.05c-.56,3.75-4.28,24.56-23.11,65.71-9.59,20.96-16.07,36.12-20.39,47.68-4.18,11.2-5.62,17.14-6.11,19.94,3.03,7.87,16.8,28.39,35.91,44.92,5.83,5.04,10.45,9.3,14.53,13.06,12.5,11.52,17.67,16.29,39.77,25.88,36.1,15.67,53.75,31.07,70.82,45.96,1.84,1.61,3.71,3.24,5.64,4.9,13.98,12.05,19.72,23.47,23.52,31.03.7,1.4,1.65,3.28,2.13,4.02.18.13.52.36,1.11.68,35.9,19.81,41.46,52.72,42.16,82.3.14,6.09,1.26,8.09,4.58,14.02,4.72,8.45,11.86,21.21,11.27,41.24-.58,19.82-7.56,32.28-12.18,40.53-.75,1.34-1.73,3.08-2.21,4.1,1.42,4.54,8.81,13.95,12.07,18.09,2.54,3.23,4.94,6.28,7.09,9.41,3.77,5.48,6.16,11.04,7.95,16.11,10.35-1.76,20.96,1.02,29.21,7.84l15.93,13.16,2.97,5.66c.57,1.04,1.26,2.21,1.97,3.34,18.04,4.02,31.56,20.15,31.56,39.38Z"/>
  <g>
    <path class="cls-2" d="M2481.66,726.13l-68.5-23.65c-13.51-4.7-23.69-11.4-30.27-19.91-6.57-8.47-9.9-18.46-9.9-29.67,0-9.76,2.41-18.56,7.17-26.13,4.75-7.58,11.5-13.53,20.04-17.69,8.57-4.16,18.59-6.27,29.78-6.27,18.79,0,35.76,5.7,50.45,16.95,14.69,11.26,25.65,27.1,32.58,47.07l.19.53,57.4-27.94-.13-.41c-6.67-20.51-16.88-38.61-30.35-53.8-13.49-15.19-29.78-27.26-48.42-35.87-18.66-8.61-39.42-12.97-61.71-12.97-24.3,0-46.17,5.11-64.99,15.18-18.83,10.09-33.78,24.3-44.44,42.26-10.66,17.96-16.07,38.95-16.07,62.41,0,27.13,7.52,50.82,22.35,70.43,14.81,19.6,37.02,34.56,65.98,44.44l71.5,25.3c12.86,4.72,22.63,10.96,29.04,18.55,6.39,7.57,9.63,17.46,9.63,29.38,0,10.11-2.41,18.9-7.17,26.12-4.76,7.23-11.59,13-20.3,17.15-8.72,4.16-19.16,6.28-31.03,6.28-21.13,0-40.37-6.72-57.19-19.97-16.85-13.26-29.92-31.79-38.84-55.06l-.19-.5-57.88,27.37.13.41c6.98,22.69,17.87,42.83,32.35,59.85,14.49,17.03,32.04,30.49,52.17,40,20.14,9.52,42.17,14.35,65.46,14.35,25.95,0,48.91-5.2,68.23-15.46,19.32-10.26,34.7-24.57,45.69-42.53,11-17.96,16.57-38.96,16.57-62.41,0-27.48-7.52-50.9-22.36-69.61-14.82-18.68-37.35-33.54-66.98-44.16Z"/>
    <polygon class="cls-2" points="2857.49 721.7 2699.99 721.7 2699.99 542.95 2630.49 542.95 2630.49 953.7 2699.99 953.7 2699.99 788.7 2857.49 788.7 2857.49 953.7 2926.99 953.7 2926.99 542.95 2857.49 542.95 2857.49 721.7"/>
    <path class="cls-2" d="M3320.85,597.01c-17.64-19.02-38.55-34.05-62.16-44.67-23.63-10.61-49.61-15.99-77.21-15.99s-53.58,5.38-77.21,15.99c-23.62,10.62-44.54,25.55-62.16,44.39-17.64,18.85-31.55,41.48-41.35,67.26-9.81,25.78-14.78,54.06-14.78,84.05s5.06,58.27,15.03,84.06c9.98,25.81,23.98,48.53,41.6,67.53,17.63,19.03,38.46,34.06,61.91,44.67,23.46,10.61,49.35,15.99,76.96,15.99s53.49-5.38,76.96-15.99c23.44-10.6,44.27-25.63,61.91-44.67,17.62-19.02,31.62-41.74,41.6-67.53,9.98-25.79,15.03-54.07,15.03-84.06s-4.97-58.16-14.78-83.78c-9.81-25.61-23.73-48.24-41.35-67.26ZM3181.49,891.1c-17.85,0-34.6-3.59-49.79-10.68-15.21-7.09-28.69-17.13-40.09-29.85-11.41-12.73-20.38-28.03-26.65-45.49-6.28-17.46-9.47-36.64-9.47-57.03s3.19-39.48,9.47-56.75c6.28-17.27,15.24-32.57,26.66-45.49,11.41-12.9,24.89-22.95,40.08-29.85,15.2-6.9,31.96-10.4,49.79-10.4s34.58,3.5,49.79,10.4c15.2,6.91,28.68,16.95,40.08,29.85,11.4,12.9,20.37,28.21,26.66,45.49,6.28,17.3,9.47,36.39,9.47,56.75s-3.19,39.55-9.47,57.03c-6.29,17.47-15.25,32.77-26.65,45.49-11.39,12.71-24.88,22.76-40.09,29.85-15.2,7.09-31.95,10.68-49.79,10.68Z"/>
    <polygon class="cls-2" points="3753.3 848.99 3681.98 543.34 3681.88 542.95 3610.09 542.95 3538.68 848.99 3469.98 543.34 3469.89 542.95 3395.85 542.95 3496 953.32 3496.1 953.7 3574.88 953.7 3645.99 661.22 3717 953.32 3717.1 953.7 3795.88 953.7 3895.97 543.57 3896.12 542.95 3822.09 542.95 3753.3 848.99"/>
    <polygon class="cls-2" points="4125.81 727.58 4002.4 543.18 4002.25 542.95 3935.98 542.95 3935.98 953.7 4005.48 953.7 4005.48 671.31 4120.21 843.7 4128.75 843.7 4242.98 676.31 4242.98 953.7 4312.48 953.7 4312.48 542.95 4246.71 542.95 4125.81 727.58"/>
    <polygon class="cls-2" points="4631.48 609.95 4631.48 542.95 4382.48 542.95 4382.48 953.7 4631.48 953.7 4631.48 886.7 4451.98 886.7 4451.98 781.55 4621.48 781.55 4621.48 714 4451.98 714 4451.98 609.95 4631.48 609.95"/>
  </g>
  <g>
    <polygon points="2290.8 1636.3 2414.8 1636.3 2414.8 1384.62 2658.8 1384.62 2658.8 1265.82 2414.8 1265.82 2414.8 1099.5 2698.8 1099.5 2698.8 980.7 2290.8 980.7 2290.8 1636.3"/>
    <rect x="2760.39" y="980.7" width="124" height="655.6"/>
    <path d="M3401.18,1304.1c18.66-31.38,28-69.37,28-113.96s-9.08-84.18-27.2-115.28c-18.14-31.09-43.08-54.56-74.8-70.4-31.74-15.84-68.14-23.76-109.2-23.76h-228v655.6h124v-237.6h88l120.8,237.6h139.2l-136-261.36c31.46-15.84,56.53-39.45,75.2-70.84ZM3294.38,1236.78c-7.2,13.5-17.2,24.06-30,31.68-12.8,7.63-28,11.44-45.6,11.44h-104.8v-180.4h104.8c17.6,0,32.8,3.82,45.6,11.44,12.8,7.63,22.8,18.19,30,31.68,7.2,13.5,10.8,29.34,10.8,47.52s-3.6,33.15-10.8,46.64Z"/>
    <polygon points="3924.38 1099.5 3924.38 980.7 3523.58 980.7 3523.58 1636.3 3924.38 1636.3 3924.38 1517.5 3647.58 1517.5 3647.58 1367.02 3908.38 1367.02 3908.38 1248.22 3647.58 1248.22 3647.58 1099.5 3924.38 1099.5"/>
  </g>
</svg>